HIERARCHY
ROOT Hips
{
  OFFSET 51.9991 55.3476 -7.81417
  CHANNELS 6 Xposition Yposition Zposition Zrotation Xrotation Yrotation
  JOINT spine
  {
    OFFSET 0 6.84637 0.3937
    CHANNELS 3 Zrotation Xrotation Yrotation
    JOINT spine1
    {
      OFFSET 0 9.49621 0
      CHANNELS 3 Zrotation Xrotation Yrotation
      JOINT spine2
      {
        OFFSET 0 9.09909 0
        CHANNELS 3 Zrotation Xrotation Yrotation
        JOINT Neck
        {
          OFFSET 0 23.3612 1.11378
          CHANNELS 3 Zrotation Xrotation Yrotation
          JOINT Head
          {
            OFFSET 0 7.05802 0
            CHANNELS 3 Zrotation Xrotation Yrotation
            End Site
            {
              OFFSET 0 17.0844 -5.63419
            }
          }
        }
        JOINT RightShoulder
        {
          OFFSET -3.83136 9.82631 -0.533491
          CHANNELS 3 Zrotation Xrotation Yrotation
          JOINT RightArm
          {
            OFFSET 0 12.8881 0
            CHANNELS 3 Zrotation Xrotation Yrotation
            JOINT RightArmRoll
            {
              OFFSET 0 6.50617 0
              CHANNELS 3 Zrotation Xrotation Yrotation
              JOINT RightForeArm
              {
                OFFSET 0 18.9501 0
                CHANNELS 3 Zrotation Xrotation Yrotation
                JOINT RightForeArmRoll
                {
                  OFFSET 0 7.30092 0
                  CHANNELS 3 Zrotation Xrotation Yrotation
                  JOINT RightHand
                  {
                    OFFSET 0 14.6514 0
                    CHANNELS 3 Zrotation Xrotation Yrotation
                    End Site
                    {
                      OFFSET 0 0 0
                    }
                  }
                }
              }
            }
          }
        }
        JOINT LeftShoulder
        {
          OFFSET 3.83136 9.82631 -0.533491
          CHANNELS 3 Zrotation Xrotation Yrotation
          JOINT LeftArm
          {
            OFFSET 0 12.8881 0
            CHANNELS 3 Zrotation Xrotation Yrotation
            JOINT LeftArmRoll
            {
              OFFSET 0 6.50617 0
              CHANNELS 3 Zrotation Xrotation Yrotation
              JOINT LeftForeArm
              {
                OFFSET 0 18.9501 0
                CHANNELS 3 Zrotation Xrotation Yrotation
                JOINT LeftForeArmRoll
                {
                  OFFSET 0 7.30092 0
                  CHANNELS 3 Zrotation Xrotation Yrotation
                  JOINT LeftHand
                  {
                    OFFSET 0 14.6514 0
                    CHANNELS 3 Zrotation Xrotation Yrotation
                    End Site
                    {
                      OFFSET 0 0 0
                    }
                  }
                }
              }
            }
          }
        }
      }
    }
  }
  JOINT RightUpLeg
  {
    OFFSET -6.06837 -1.11278 -0.933477
    CHANNELS 3 Zrotation Xrotation Yrotation
    JOINT RightUpLegRoll
    {
      OFFSET 0 17.1796 0
      CHANNELS 3 Zrotation Xrotation Yrotation
      JOINT RightLeg
      {
        OFFSET 0 -21.2743 0
        CHANNELS 3 Zrotation Xrotation Yrotation
        JOINT RightLegRoll
        {
          OFFSET 0 21.3439 0
          CHANNELS 3 Zrotation Xrotation Yrotation
          JOINT RightFoot
          {
            OFFSET 0 17.7652 0
            CHANNELS 3 Zrotation Xrotation Yrotation
            JOINT RightToeBase
            {
              OFFSET 0 14.8508 0
              CHANNELS 3 Zrotation Xrotation Yrotation
              End Site
              {
                OFFSET 0.0062947 7.19213 -0.829005
              }
            }
          }
        }
      }
    }
  }
  JOINT LeftUpLeg
  {
    OFFSET 6.06837 -1.11278 -0.933477
    CHANNELS 3 Zrotation Xrotation Yrotation
    JOINT LeftUpLegRoll
    {
      OFFSET 0 17.1797 0
      CHANNELS 3 Zrotation Xrotation Yrotation
      JOINT LeftLeg
      {
        OFFSET 0 21.2742 0
        CHANNELS 3 Zrotation Xrotation Yrotation
        JOINT LeftLegRoll
        {
          OFFSET 0 21.5412 0
          CHANNELS 3 Zrotation Xrotation Yrotation
          JOINT LeftFoot
          {
            OFFSET 0 17.5679 0
            CHANNELS 3 Zrotation Xrotation Yrotation
            JOINT LeftToeBase
            {
              OFFSET 0 14.8508 0
              CHANNELS 3 Zrotation Xrotation Yrotation
              End Site
              {
                OFFSET -0.0282102 7.19214 -0.829005
              }
            }
          }
        }
      }
    }
  }
}
MOTION
Frames: 12
Frame Time: 0.00208333
52.4719 66.3508 0.121727 7.0794 42.316 -10.6069 -0.088137 0.927671 0.36004 -0.194776 5.85755 0.73433 -0.20406 7.50256 0.73872 -18.3253 1.50092 0.509058 16.2352 16.7184 -4.23948 39.8853 -5.66871 -2.28411 131.264 40.7761 -66.3774 6.37058e-007 -3.35235e-006 -1.951e-006 16.9956 46.7926 -1.14752 1.10181e-005 1.46842e-006 -3.00642 8.03042 -4.95137 0.697722 -63.54 -9.63428 6.01588 -106.364 43.0021 55.6824 -1.12596e-006 3.74549e-006 4.95123e-006 -39.4273 58.5036 17.8411 6.29207e-007 8.2555e-006 3.00066 -8.03032 -4.95137 -0.697744 17.005 74.0728 162.209 180 7.01643e-015 179.489 164.719 69.0899 -170.305 -4.58679e-006 -4.49276e-006 1.17462 -22.5824 70.36 21.8582 8.13649 25.2326 -3.48773 -43.0779 73.1137 -139.407 4.54188e-006 -4.6773e-006 -0.339452 -30.252 -74.9221 -21.4229 1.26356e-006 7.58204e-007 -0.15441 41.0215 78.2 -38.367 -8.14098 25.2327 3.48156 
52.4333 66.2942 0.0823922 7.05571 42.2808 -10.5859 -0.0875717 0.93165 0.361053 -0.193383 5.86551 0.736265 -0.202699 7.51052 0.74063 -18.3293 1.50472 0.508762 16.237 16.728 -4.24279 39.8502 -5.68518 -2.29618 131.255 40.7434 -66.458 6.37058e-007 -3.35235e-006 -1.951e-006 16.8638 46.9543 -1.1022 1.10181e-005 1.46842e-006 -3.00641 8.03042 -4.95137 0.697722 -63.5199 -9.63537 6.01635 -106.299 42.9812 55.7578 -1.12596e-006 3.74549e-006 4.95123e-006 -39.3421 58.7232 17.8959 6.29207e-007 8.2555e-006 3.00066 -8.03032 -4.95137 -0.697744 16.8682 74.0122 162.365 180 7.01643e-015 179.487 164.709 69.2045 -170.279 -4.58679e-006 -4.49276e-006 1.1797 -22.593 70.3654 21.8644 8.13649 25.2326 -3.48773 -42.9609 73.0464 -139.555 4.54188e-006 -4.6773e-006 -0.33997 -30.2952 -75.0476 -21.4782 1.26356e-006 7.58204e-007 -0.168189 41.0175 78.207 -38.3817 -8.14098 25.2327 3.48156 
52.4249 66.2305 0.0462255 7.03148 42.2443 -10.5643 -0.0869073 0.935697 0.362162 -0.19165 5.8736 0.738373 -0.201001 7.51862 0.742707 -18.3323 1.50915 0.50828 16.2372 16.7372 -4.24606 39.8155 -5.70199 -2.3086 131.245 40.7095 -66.5408 6.37058e-007 -3.35235e-006 -1.951e-006 16.7347 47.1112 -1.05636 1.10181e-005 1.46842e-006 -3.00641 8.03042 -4.95137 0.697722 -63.5009 -9.63601 6.01658 -106.236 42.9616 55.8289 -1.12596e-006 3.74549e-006 4.95123e-006 -39.2549 58.9372 17.947 6.29207e-007 8.2555e-006 3.00066 -8.03032 -4.95137 -0.697744 16.7358 73.9534 162.517 180 7.01643e-015 179.484 164.698 69.3179 -170.253 -4.58679e-006 -4.49276e-006 1.18488 -22.6039 70.3702 21.8701 8.13649 25.2326 -3.48773 -42.8431 72.9812 -139.701 4.54188e-006 -4.6773e-006 -0.340466 -30.3322 -75.1725 -21.5285 1.26356e-006 7.58204e-007 -0.181909 41.0079 78.2136 -38.3932 -8.14098 25.2327 3.48156 
52.4109 66.1671 0.00730216 7.00677 42.2066 -10.5422 -0.0861643 0.939796 0.363358 -0.189639 5.88181 0.740637 -0.199029 7.52682 0.744934 -18.3345 1.514 0.50763 16.2362 16.7462 -4.2493 39.7814 -5.71911 -2.32135 131.234 40.6745 -66.6254 6.37058e-007 -3.35235e-006 -1.951e-006 16.6083 47.2637 -1.01009 1.10181e-005 1.46842e-006 -3.00641 8.03042 -4.95137 0.697722 -63.4829 -9.63625 6.01659 -106.174 42.9431 55.8959 -1.12596e-006 3.74549e-006 4.95123e-006 -39.166 59.146 17.9948 6.29207e-007 8.2555e-006 3.00066 -8.03032 -4.95137 -0.697744 16.6072 73.8962 162.666 180 7.01642e-015 179.482 164.687 69.4305 -170.228 -4.58679e-006 -4.49276e-006 1.19014 -22.615 70.3747 21.8755 8.13649 25.2326 -3.48773 -42.7247 72.918 -139.846 4.54188e-006 -4.6773e-006 -0.340942 -30.3637 -75.2968 -21.5745 1.26356e-006 7.58204e-007 -0.195576 40.9933 78.2198 -38.4019 -8.14098 25.2327 3.48156 
52.3908 66.1052 -0.0302838 6.98163 42.1678 -10.5196 -0.0853637 0.943931 0.364631 -0.187414 5.89008 0.74304 -0.196844 7.5351 0.747296 -18.336 1.51907 0.506836 16.2342 16.7553 -4.25255 39.7476 -5.73648 -2.33439 131.223 40.6387 -66.7114 6.37058e-007 -3.35235e-006 -1.951e-006 16.4843 47.4119 -0.963456 1.10181e-005 1.46842e-006 -3.00641 8.03042 -4.95137 0.697722 -63.4656 -9.63612 6.0164 -106.114 42.9255 55.9591 -1.12596e-006 3.74549e-006 4.95123e-006 -39.0753 59.3497 18.0394 6.29207e-007 8.2555e-006 3.00066 -8.03032 -4.95137 -0.697744 16.482 73.8405 162.813 180 7.01642e-015 179.479 164.677 69.5421 -170.203 -4.58679e-006 -4.49276e-006 1.19546 -22.6262 70.3787 21.8803 8.13649 25.2326 -3.48773 -42.6064 72.8565 -139.99 4.54188e-006 -4.6773e-006 -0.3414 -30.3906 -75.4206 -21.6169 1.26356e-006 7.58204e-007 -0.209195 40.9742 78.2256 -38.4078 -8.14098 25.2327 3.48156 
52.4223 66.0572 -0.0525424 6.95613 42.1279 -10.4967 -0.0845261 0.948087 0.365971 -0.185036 5.89839 0.745566 -0.19451 7.54342 0.749778 -18.337 1.52415 0.505916 16.2314 16.7647 -4.2558 39.7144 -5.75408 -2.34767 131.211 40.6022 -66.7987 6.37058e-007 -3.35235e-006 -1.951e-006 16.3627 47.5562 -0.916536 1.10181e-005 1.46842e-006 -3.00641 8.03042 -4.95137 0.697722 -63.4489 -9.63567 6.01603 -106.055 42.9087 56.0186 -1.12596e-006 3.74549e-006 4.95123e-006 -38.9831 59.5486 18.0808 6.29207e-007 8.2555e-006 3.00066 -8.03032 -4.95137 -0.697744 16.3596 73.7861 162.956 180 7.01642e-015 179.477 164.666 69.6529 -170.177 -4.58679e-006 -4.49276e-006 1.20082 -22.6374 70.3823 21.8848 8.13649 25.2326 -3.48773 -42.4883 72.7965 -140.132 4.54188e-006 -4.6773e-006 -0.341841 -30.4136 -75.5439 -21.6561 1.26356e-006 7.58204e-007 -0.222771 40.9513 78.231 -38.4113 -8.14098 25.2327 3.48156 
52.393 65.9887 -0.0956077 6.93032 42.0872 -10.4735 -0.0836722 0.952246 0.367369 -0.182568 5.90672 0.748197 -0.192087 7.55174 0.752364 -18.3376 1.52904 0.504893 16.228 16.7746 -4.25909 39.6816 -5.77186 -2.36117 131.199 40.5652 -66.8869 6.37058e-007 -3.35235e-006 -1.951e-006 16.2432 47.6969 -0.869407 1.10181e-005 1.46842e-006 -3.00641 8.03042 -4.95137 0.697722 -63.4327 -9.63494 6.0155 -105.997 42.8926 56.0747 -1.12596e-006 3.74549e-006 4.95123e-006 -38.8894 59.7429 18.1195 6.29207e-007 8.2555e-006 3.00066 -8.03032 -4.95137 -0.697744 16.2398 73.7329 163.098 180 7.01641e-015 179.474 164.655 69.763 -170.152 -4.58679e-006 -4.49276e-006 1.20622 -22.6486 70.3855 21.8889 8.13649 25.2326 -3.48773 -42.3711 72.7376 -140.272 4.54188e-006 -4.6773e-006 -0.342269 -30.4334 -75.6667 -21.6929 1.26356e-006 7.58204e-007 -0.236308 40.925 78.236 -38.4126 -8.14098 25.2327 3.48156 
52.3787 65.9109 -0.13875 6.90426 42.0455 -10.4501 -0.0828229 0.956394 0.368814 -0.180073 5.91502 0.750917 -0.189638 7.56004 0.755039 -18.3379 1.53352 0.503787 16.2242 16.7852 -4.26242 39.6492 -5.78979 -2.37484 131.188 40.5279 -66.9757 6.37058e-007 -3.35235e-006 -1.951e-006 16.1257 47.8343 -0.822141 1.10181e-005 1.46842e-006 -3.00641 8.03042 -4.95137 0.697722 -63.4167 -9.63397 6.01484 -105.94 42.877 56.1275 -1.12596e-006 3.74549e-006 4.95123e-006 -38.7945 59.933 18.1555 6.29207e-007 8.2555e-006 3.00066 -8.03032 -4.95137 -0.697744 16.1221 73.6807 163.237 180 7.01641e-015 179.471 164.644 69.8724 -170.127 -4.58679e-006 -4.49276e-006 1.21164 -22.6596 70.3883 21.8925 8.13649 25.2326 -3.48773 -42.2551 72.6796 -140.409 4.54188e-006 -4.6773e-006 -0.342684 -30.451 -75.7889 -21.7278 1.26356e-006 7.58204e-007 -0.249813 40.8961 78.2406 -38.4119 -8.14098 25.2327 3.48156 
52.3732 65.856 -0.169843 6.878 42.0032 -10.4267 -0.0819988 0.960515 0.370298 -0.177613 5.92326 0.753709 -0.187224 7.56829 0.757785 -18.338 1.53739 0.502618 16.2204 16.7967 -4.26581 39.6172 -5.80781 -2.38865 131.176 40.4906 -67.065 6.37058e-007 -3.35235e-006 -1.951e-006 16.01 47.9687 -0.774816 1.10182e-005 1.46842e-006 -3.0064 8.03042 -4.95137 0.697722 -63.4007 -9.6328 6.01406 -105.883 42.8619 56.1773 -1.12596e-006 3.74549e-006 4.95123e-006 -38.6985 60.1191 18.1892 6.29207e-007 8.2555e-006 3.00066 -8.03032 -4.95137 -0.697744 16.006 73.6295 163.375 180 7.01641e-015 179.469 164.633 69.9811 -170.102 -4.58679e-006 -4.49276e-006 1.21705 -22.6704 70.3908 21.8957 8.13649 25.2326 -3.48773 -42.1408 72.6223 -140.545 4.54188e-006 -4.6773e-006 -0.34309 -30.4672 -75.9108 -21.7616 1.26356e-006 7.58204e-007 -0.26329 40.865 78.2448 -38.4095 -8.14098 25.2327 3.48156 
52.3499 65.7941 -0.205824 6.8516 41.9601 -10.4033 -0.0812207 0.964591 0.37181 -0.17525 5.93142 0.756555 -0.184907 7.57645 0.760589 -18.3381 1.54045 0.501409 16.2166 16.8093 -4.26929 39.5856 -5.82591 -2.40256 131.165 40.4534 -67.1543 6.37058e-007 -3.35235e-006 -1.951e-006 15.8959 48.1003 -0.727505 1.10182e-005 1.46842e-006 -3.0064 8.03042 -4.95137 0.697722 -63.3846 -9.63147 6.01319 -105.828 42.8469 56.2244 -1.12596e-006 3.74549e-006 4.95123e-006 -38.6016 60.3014 18.2206 6.29207e-007 8.2555e-006 3.00066 -8.03032 -4.95137 -0.697744 15.8911 73.5789 163.512 180 7.0164e-015 179.466 164.622 70.0894 -170.077 -4.58679e-006 -4.49276e-006 1.22244 -22.6808 70.3928 21.8985 8.13649 25.2326 -3.48773 -42.0287 72.5654 -140.678 4.54188e-006 -4.6773e-006 -0.343487 -30.4829 -76.0321 -21.795 1.26356e-006 7.58204e-007 -0.276744 40.8324 78.2486 -38.4057 -8.14098 25.2327 3.48156 
52.3443 65.7341 -0.238839 6.82511 41.9165 -10.38 -0.0805094 0.968608 0.37334 -0.173047 5.93946 0.75944 -0.18275 7.58449 0.763434 -18.3382 1.54249 0.500179 16.2132 16.8233 -4.27287 39.5544 -5.84402 -2.41653 131.155 40.4165 -67.2435 6.37058e-007 -3.35235e-006 -1.951e-006 15.7833 48.2294 -0.680283 1.10182e-005 1.46842e-006 -3.0064 8.03042 -4.95137 0.697722 -63.3682 -9.63003 6.01226 -105.774 42.8321 56.2688 -1.12596e-006 3.74549e-006 4.95123e-006 -38.5039 60.4802 18.2502 6.29207e-007 8.2555e-006 3.00066 -8.03032 -4.95137 -0.697744 15.777 73.529 163.648 180 -7.0164e-015 179.463 164.612 70.1971 -170.052 -4.58679e-006 -4.49276e-006 1.2278 -22.6907 70.3945 21.9009 8.13649 25.2326 -3.48773 -41.9192 72.5087 -140.809 4.54188e-006 -4.6773e-006 -0.343878 -30.4989 -76.153 -21.8288 1.26356e-006 7.58204e-007 -0.29018 40.7988 78.2521 -38.4005 -8.14098 25.2327 3.48156 
52.3174 65.6729 -0.276938 6.7986 41.8724 -10.3569 -0.0798854 0.972549 0.37488 -0.171066 5.94734 0.762345 -0.180813 7.59237 0.766305 -18.3386 1.5433 0.498949 16.2103 16.8387 -4.27656 39.5236 -5.86211 -2.43052 131.146 40.3801 -67.3322 6.37058e-007 -3.35235e-006 -1.951e-006 15.6721 48.3564 -0.633225 1.10182e-005 1.46842e-006 -3.0064 8.03042 -4.95137 0.697722 -63.3513 -9.62852 6.01127 -105.72 42.8172 56.3107 -1.12596e-006 3.74549e-006 4.95123e-006 -38.4056 60.6557 18.278 6.29207e-007 8.2555e-006 3.00066 -8.03032 -4.95137 -0.697744 15.6635 73.4794 163.783 180 7.0164e-015 179.46 164.601 70.3045 -170.028 -4.58679e-006 -4.49276e-006 1.23311 -22.7002 70.3959 21.9029 8.13649 25.2326 -3.48773 -41.8127 72.4519 -140.937 4.54188e-006 -4.6773e-006 -0.344264 -30.5162 -76.2735 -21.8636 1.26356e-006 7.58204e-007 -0.303603 40.7648 78.2552 -38.3944 -8.14098 25.2327 3.48156 
